<?xml version="1.0" encoding="UTF-8" standalone="no"?>
<svg
   width="100"
   height="100"
   viewBox="0 0 100 100"
   role="img"
   aria-label="jomrr JR monogram"
   version="1.1"
   id="svg1"
   sodipodi:docname="logo-light-transparent.svg"
   inkscape:version="1.4.3 (0d15f75042, 2025-12-25)"
   xmlns:inkscape="http://www.inkscape.org/namespaces/inkscape"
   xmlns:sodipodi="http://sodipodi.sourceforge.net/DTD/sodipodi-0.dtd"
   xmlns="http://www.w3.org/2000/svg"
   xmlns:svg="http://www.w3.org/2000/svg">
  <defs
     id="defs1">
    <clipPath
       clipPathUnits="userSpaceOnUse"
       id="clipPath2">
      <g
         inkscape:label="Clip"
         id="use2">
        <path
           d="m 49.47,15.16 -0.110004,10.69 h 18.27 l 2.57,0.32 2.35,0.75 2.46,1.49 2.24,2.46 0.750001,1.39 0.529999,1.5 0.32,1.49 0.109998,2.46 -0.32,2.03 -0.53,1.6 -1.07,1.929999 -2.03,2.130001 -1.28,0.86 -1.82,0.849998 -1.5,0.430002 -2.14,0.32 H 49.36 v 10.58 h 10.69 l 18.59,26.08 h 12.4 L 72.02,57.91 76.4,56.52 78.96,55.24 81.21,53.74 82.38,52.779999 84.95,50.11 87.19,46.58 87.94,44.87 88.900001,41.66 89.33,38.14 V 35.470003 L 89.11,33.22 88.58,30.659999 87.62,27.880003 86.55,25.74 85.589999,24.24 83.66,21.889999 80.99,19.54 78.85,18.15 76.72,17.08 73.62,16.02 71.05,15.479999 67.95,15.16 Z m -4.71,0 H 34.29 V 67.42 L 33.86,69.879998 32.79,72.02 31.3,73.510002 29.69,74.369999 27.98,74.79 24.989997,74.689986 23.5,74.259988 22.64,73.82999 20.72,72.339987 19.22,70.089988 18.579999,67.94999 H 8.85 l 0.2200046,2.25 0.7499952,2.78 1.1699992,2.56 0.960001,1.5 1.5,1.81 2.24,2.04 2.46,1.6 2.350004,1.069998 1.609996,0.53 2.56,0.540002 4.28,0.100003 2.78,-0.42 2.99,-0.97 3.2,-1.81 3,-2.78 1.6,-2.35 1.28,-2.89 0.64,-2.46 0.32,-2.56 z"
           fill="#000000"
           fill-rule="evenodd"
           id="path5"
           style="stroke-width:1" />
      </g>
    </clipPath>
  </defs>
  <sodipodi:namedview
     id="namedview1"
     pagecolor="#ffffff"
     bordercolor="#000000"
     borderopacity="0.25"
     inkscape:showpageshadow="2"
     inkscape:pageopacity="0.0"
     inkscape:pagecheckerboard="0"
     inkscape:deskcolor="#d1d1d1"
     inkscape:zoom="3.62"
     inkscape:cx="-20.303867"
     inkscape:cy="47.790055"
     inkscape:window-width="3072"
     inkscape:window-height="1659"
     inkscape:window-x="0"
     inkscape:window-y="0"
     inkscape:window-maximized="1"
     inkscape:current-layer="svg1" />
  <path
     d="m 49.470703,15.160156 -0.111328,10.689453 h 18.271484 l 2.56836,0.320313 2.351562,0.75 2.458985,1.490234 2.240234,2.458985 0.75,1.390625 0.529297,1.5 0.320312,1.490234 0.111328,2.460937 -0.320312,2.029297 -0.53125,1.59961 -1.070313,1.929687 -2.029296,2.13086 -1.279297,0.859375 -1.820313,0.849609 -1.5,0.429687 -2.140625,0.320313 H 49.359375 v 10.580078 h 10.691406 l 18.589844,26.080078 h 12.398437 l -19.019531,-26.609375 4.38086,-1.390625 2.560546,-1.279297 2.25,-1.5 1.169922,-0.960937 2.56836,-2.669922 2.240234,-3.529297 0.75,-1.710937 0.960938,-3.208985 0.429687,-3.519531 v -2.669922 l -0.220703,-2.25 -0.529297,-2.560547 -0.960937,-2.779297 -1.06836,-2.140625 -0.960937,-1.5 -1.929688,-2.349609 -2.669922,-2.351563 -2.140625,-1.388671 -2.128906,-1.070313 -3.101562,-1.060547 -2.56836,-0.539062 -3.101562,-0.320313 z"
     style="fill-rule:evenodd;fill:#0ea5e9;fill-opacity:1"
     id="path4" />
  <path
     d="m 34.289062,15.160156 v 52.259766 l -0.429687,2.460937 -1.070313,2.138672 -1.488281,1.490235 -1.611328,0.859375 -1.708984,0.419921 -2.990235,-0.09961 L 23.5,74.259766 l -0.859375,-0.429688 -1.919922,-1.490234 -1.5,-2.25 -0.640625,-2.140625 H 8.8496094 l 0.2207031,2.25 0.75,2.78125 1.1699215,2.558593 0.958985,1.5 1.5,1.810547 2.240234,2.041016 2.460938,1.599609 2.349609,1.070313 1.609375,0.529297 2.560547,0.541015 4.279297,0.09961 2.78125,-0.419922 2.990234,-0.970703 3.199219,-1.810547 3,-2.779297 1.599609,-2.349609 1.28125,-2.890625 0.638672,-2.458985 0.320313,-2.560547 V 15.160156 Z"
     style="fill-rule:evenodd;fill:#111827;fill-opacity:1"
     id="path3" />
  <rect
     style="fill:#111827;stroke-width:0.780803;fill-opacity:1"
     id="rect1"
     width="10.75"
     height="10.75"
     x="49.309395"
     y="73.756912" />
</svg>
