<?xml version="1.0" encoding="UTF-8" standalone="no"?>
<svg
   width="100"
   height="100"
   viewBox="0 0 100 100"
   role="img"
   aria-label="jomrr JR monogram"
   version="1.1"
   id="svg1"
   sodipodi:docname="logo-dark-transparent.svg"
   inkscape:version="1.4.3 (0d15f75042, 2025-12-25)"
   xmlns:inkscape="http://www.inkscape.org/namespaces/inkscape"
   xmlns:sodipodi="http://sodipodi.sourceforge.net/DTD/sodipodi-0.dtd"
   xmlns="http://www.w3.org/2000/svg"
   xmlns:svg="http://www.w3.org/2000/svg">
  <defs
     id="defs1" />
  <sodipodi:namedview
     id="namedview1"
     pagecolor="#ffffff"
     bordercolor="#000000"
     borderopacity="0.25"
     inkscape:showpageshadow="2"
     inkscape:pageopacity="0.0"
     inkscape:pagecheckerboard="0"
     inkscape:deskcolor="#d1d1d1"
     inkscape:zoom="14.48"
     inkscape:cx="50.03453"
     inkscape:cy="50"
     inkscape:window-width="3072"
     inkscape:window-height="1659"
     inkscape:window-x="0"
     inkscape:window-y="0"
     inkscape:window-maximized="1"
     inkscape:current-layer="svg1" />
  <path
     d="M 49.47 15.16 L 49.36 25.85 L 67.63 25.85 L 70.20 26.17 L 72.55 26.92 L 75.01 28.41 L 77.25 30.87 L 78.00 32.26 L 78.53 33.76 L 78.85 35.25 L 78.96 37.71 L 78.64 39.74 L 78.11 41.34 L 77.04 43.27 L 75.01 45.40 L 73.73 46.26 L 71.91 47.11 L 70.41 47.54 L 68.27 47.86 L 49.36 47.86 L 49.36 58.44 L 60.05 58.44 L 78.64 84.52 L 91.04 84.52 L 72.02 57.91 L 76.40 56.52 L 78.96 55.24 L 81.21 53.74 L 82.38 52.78 L 84.95 50.11 L 87.19 46.58 L 87.94 44.87 L 88.90 41.66 L 89.33 38.14 L 89.33 35.47 L 89.11 33.22 L 88.58 30.66 L 87.62 27.88 L 86.55 25.74 L 85.59 24.24 L 83.66 21.89 L 80.99 19.54 L 78.85 18.15 L 76.72 17.08 L 73.62 16.02 L 71.05 15.48 L 67.95 15.16 Z M 44.76 15.16 L 34.29 15.16 L 34.29 67.42 L 33.86 69.88 L 32.79 72.02 L 31.30 73.51 L 29.69 74.37 L 27.98 74.79 L 24.99 74.69 L 23.50 74.26 L 22.64 73.83 L 20.72 72.34 L 19.22 70.09 L 18.58 67.95 L 8.85 67.95 L 9.07 70.20 L 9.82 72.98 L 10.99 75.54 L 11.95 77.04 L 13.45 78.85 L 15.69 80.89 L 18.15 82.49 L 20.50 83.56 L 22.11 84.09 L 24.67 84.63 L 28.95 84.73 L 31.73 84.31 L 34.72 83.34 L 37.92 81.53 L 40.92 78.75 L 42.52 76.40 L 43.80 73.51 L 44.44 71.05 L 44.76 68.49 Z"
     fill="#FFFFFF"
     fill-rule="evenodd"
     id="path1" />
  <rect
     style="fill:#ffffff;stroke-width:1.0793"
     id="rect1"
     width="10.75"
     height="10.75"
     x="49.447514"
     y="31.629833" />
  <rect
     style="fill:#ffffff;stroke-width:1.07931"
     id="rect1-5"
     width="10.75"
     height="10.75"
     x="49.447514"
     y="73.798325" />
</svg>
